<?xml version="1.0" encoding="UTF-8" standalone="no"?>
<!-- Uploaded to: SVG Repo, www.svgrepo.com, Generator: SVG Repo Mixer Tools -->

<svg
   width="800px"
   height="800px"
   viewBox="0 0 1024 1024"
   class="icon"
   version="1.1"
   id="svg6"
   sodipodi:docname="sad.svg"
   inkscape:version="1.3.2 (091e20e, 2023-11-25, custom)"
   xmlns:inkscape="http://www.inkscape.org/namespaces/inkscape"
   xmlns:sodipodi="http://sodipodi.sourceforge.net/DTD/sodipodi-0.dtd"
   xmlns="http://www.w3.org/2000/svg"
   xmlns:svg="http://www.w3.org/2000/svg">
  <defs
     id="defs6" />
  <sodipodi:namedview
     id="namedview6"
     pagecolor="#ffffff"
     bordercolor="#666666"
     borderopacity="1.0"
     inkscape:showpageshadow="2"
     inkscape:pageopacity="0.0"
     inkscape:pagecheckerboard="0"
     inkscape:deskcolor="#d1d1d1"
     inkscape:zoom="0.43487067"
     inkscape:cx="256.39807"
     inkscape:cy="338.03153"
     inkscape:window-width="1280"
     inkscape:window-height="730"
     inkscape:window-x="-6"
     inkscape:window-y="-6"
     inkscape:window-maximized="1"
     inkscape:current-layer="svg6" />
  <path
     d="m 20.016,512.002 c -2e-6,130.48333 51.834298,255.62242 144.09995,347.88802 92.26565,92.2656 217.40472,144.09978 347.88805,144.09978 130.48333,0 255.6224,-51.83418 347.88805,-144.09978 C 952.1577,767.62442 1003.992,642.48533 1003.992,512.002 1003.992,381.51867 952.1577,256.37958 859.89205,164.11398 767.6264,71.848383 642.48733,20.014206 512.004,20.014206 381.52067,20.014206 256.3816,71.848383 164.11595,164.11398 71.850298,256.37958 20.015998,381.51867 20.016,512.002 Z"
     fill="#fddf6d"
     id="path1" />
  <path
     d="M617.43 931.354c-271.716 0-491.986-220.268-491.986-491.986 0-145.168 62.886-275.632 162.888-365.684C129.056 155.124 20.016 320.824 20.016 512c0 271.716 220.268 491.986 491.986 491.986 126.548 0 241.924-47.796 329.098-126.298-67.106 34.308-143.124 53.666-223.67 53.666z"
     fill="#FCC56B"
     id="path2" />
  <path
     d="M735.828 834.472H496.912c-11.056 0-20.014-8.958-20.014-20.014s8.958-20.014 20.014-20.014h238.914c11.056 0 20.014 8.958 20.014 20.014s-8.956 20.014-20.012 20.014zM442.172 628.498c-48.674 0-92.65-12.454-117.634-33.316-8.486-7.082-9.62-19.706-2.536-28.188 7.082-8.484 19.702-9.62 28.188-2.536 17.472 14.586 53.576 24.012 91.98 24.012 37.486 0 74.086-9.604 93.242-24.464 8.732-6.776 21.3-5.188 28.08 3.546 6.776 8.732 5.188 21.304-3.546 28.08-26.524 20.58-70.554 32.866-117.774 32.866zM789.346 628.498c-48.674 0-92.65-12.454-117.634-33.316-8.486-7.082-9.62-19.706-2.536-28.188s19.706-9.62 28.188-2.536c17.472 14.586 53.576 24.012 91.98 24.012 37.486 0 74.086-9.604 93.242-24.464 8.73-6.776 21.304-5.188 28.08 3.546 6.776 8.732 5.188 21.304-3.546 28.08-26.526 20.58-70.554 32.866-117.774 32.866zM347.382 526.08c-7.438 0-14.36-0.836-20.53-2.544-10.654-2.946-16.9-13.972-13.954-24.628 2.948-10.654 13.984-16.904 24.628-13.954 9.852 2.73 30.072 0.814 53.044-9.608 22.486-10.194 37.75-24.62 42.904-34.39 5.156-9.78 17.26-13.528 27.038-8.368 9.778 5.156 13.524 17.264 8.368 27.038-10.488 19.886-33.582 39.392-61.778 52.178-20.608 9.346-41.672 14.276-59.72 14.276zM878.98 526.08c-18.05 0-39.108-4.928-59.724-14.278-28.194-12.782-51.288-32.288-61.774-52.174-5.158-9.776-1.41-21.882 8.368-27.038 9.778-5.164 21.882-1.406 27.038 8.368 5.156 9.77 20.418 24.194 42.898 34.388 22.974 10.42 43.2 12.338 53.044 9.61 10.666-2.938 21.68 3.298 24.628 13.952 2.946 10.654-3.298 21.68-13.952 24.628-6.166 1.706-13.09 2.544-20.526 2.544z"
     fill="#7F184C"
     id="path3" />
  <path
     d="M711.124 40.168c-10.176-4.304-21.922 0.464-26.224 10.646s0.464 21.926 10.646 26.224c175.212 74.03 288.428 244.764 288.428 434.96 0 260.248-211.724 471.97-471.968 471.97S40.03 772.244 40.03 511.998 251.756 40.03 512.002 40.03c11.056 0 20.014-8.958 20.014-20.014S523.058 0 512.002 0c-282.32 0-512 229.68-512 511.998 0 282.32 229.68 512.002 512 512.002C794.318 1024 1024 794.32 1024 512c0.002-206.322-122.812-391.528-312.876-471.832z"
     fill=""
     id="path4"
     style="fill:#2d2d2d;fill-opacity:1" />
  <path
     d="M496.912 794.444c-11.056 0-20.014 8.958-20.014 20.014s8.958 20.014 20.014 20.014h238.914c11.056 0 20.014-8.958 20.014-20.014s-8.958-20.014-20.014-20.014H496.912zM350.194 564.46c-8.488-7.088-21.106-5.948-28.188 2.536-7.086 8.486-5.948 21.106 2.536 28.188 24.984 20.86 68.96 33.316 117.634 33.316 47.218 0 91.248-12.286 117.778-32.864 8.734-6.776 10.322-19.348 3.546-28.08-6.778-8.738-19.348-10.32-28.08-3.546-19.158 14.858-55.758 24.464-93.242 24.464-38.408-0.002-74.514-9.43-91.984-24.014zM671.714 595.184c24.984 20.86 68.96 33.316 117.634 33.316 47.218 0 91.248-12.286 117.778-32.864 8.734-6.776 10.322-19.348 3.546-28.08-6.776-8.738-19.35-10.32-28.08-3.546-19.158 14.858-55.758 24.464-93.242 24.464-38.404 0-74.508-9.426-91.98-24.012-8.486-7.088-21.104-5.948-28.188 2.536-7.09 8.48-5.954 21.104 2.532 28.186zM347.382 526.08c18.048 0 39.108-4.926 59.718-14.272 28.196-12.786 51.294-32.29 61.778-52.176 5.158-9.776 1.41-21.882-8.368-27.038-9.778-5.164-21.882-1.41-27.038 8.368-5.156 9.77-20.418 24.194-42.904 34.388-22.972 10.42-43.19 12.34-53.042 9.608-10.646-2.936-21.68 3.298-24.628 13.952-2.946 10.65 3.296 21.68 13.952 24.628 6.17 1.704 13.094 2.542 20.532 2.542zM819.26 511.808c20.616 9.346 41.674 14.272 59.722 14.272 7.434 0 14.362-0.836 20.532-2.546 10.65-2.948 16.896-13.976 13.946-24.628a20.004 20.004 0 0 0-24.628-13.946c-9.842 2.714-30.062 0.812-53.042-9.61-22.48-10.192-37.746-24.618-42.898-34.388-5.156-9.778-17.26-13.53-27.038-8.368-9.778 5.156-13.524 17.264-8.368 27.038 10.482 19.888 33.576 39.39 61.774 52.176z"
     fill=""
     id="path5"
     style="fill:#2d2d2d;fill-opacity:1" />
  <path
     d="m 618.19,37.682 c 0,11.053434 8.96057,20.013991 20.014,20.013991 11.05343,0 20.014,-8.960557 20.014,-20.013991 0,-11.053434 -8.96057,-20.013991 -20.014,-20.013991 -11.05343,0 -20.014,8.960557 -20.014,20.013991 z"
     fill=""
     id="path6"
     style="fill:#2d2d2d;fill-opacity:1" />
</svg>
